<svg xmlns="http://www.w3.org/2000/svg" viewBox="0 0 1184.11 989.2"><defs><style>.cls-1{fill:#baf0d5;}.cls-2{fill:#ad5fce;}.cls-3{fill:#f7b3aa;}.cls-4{fill:#fff;}.cls-5{fill:#48bf84;}.cls-6{fill:#6c5fce;}.cls-7{fill:#0f5257;}.cls-8{fill:#0d212a;}.cls-9{fill:#845f42;}.cls-10{fill:#f5c4aa;}.cls-11{opacity:0.04;}</style></defs><g id="Layer_16" data-name="Layer 16"><path class="cls-1" d="M479.48,419.5C551.42,309.27,647.6,291.18,718.82,279.27c268.26-44.86,792-109.65,799.21-13.3,3,39.44-84,61.25-89.49,150.46-4.17,67.34,42.79,96.74,54.11,172,15.39,102.25-30.08,238.11-95,278.4-76.74,47.6-158-52.66-182.46-9.21-18.7,33.24,42.55,102.75,29.14,151.49-18.18,66-154.18,36.71-502.28-52.2-238.79-61-292.92-77.37-320.52-155.58C370.75,685.83,416.28,516.33,479.48,419.5Z" transform="translate(-334 -55.8)"/><circle class="cls-2" cx="1120.5" cy="452.7" r="28.5"/><circle class="cls-3" cx="1031.5" cy="173.7" r="42.5"/><circle class="cls-4" cx="185.5" cy="424.7" r="15.5"/><circle class="cls-5" cx="22.5" cy="838.7" r="22.5"/><circle class="cls-6" cx="1131.5" cy="816.7" r="11.5"/><circle class="cls-7" cx="207.5" cy="227.7" r="22.5"/><circle class="cls-4" cx="900" cy="566.2" r="9"/></g><g id="Layer_2" data-name="Layer 2"><g id="Layer_8" data-name="Layer 8"><path class="cls-8" d="M785,630c-7,5-24,6-34,9s-50,12-68,27-33,24-45,38-74,30-71,83-21,119,34,147,174.43,50.33,213.22,60.17S991,1046,1090,1008s267,23,268-89-27-156-49-160-12-19-35-34-38.31-34-61.15-57S1177,610,1111,613,785,630,785,630Z" transform="translate(-334 -55.8)"/></g><g id="Layer_7" data-name="Layer 7"><path class="cls-4" d="M805,767s-47,2.71-55,19.35S736.22,832,751.61,846s32,24.33,35.68,26.15S819,793,812,780Z" transform="translate(-334 -55.8)"/></g><g id="Layer_3" data-name="Layer 3"><path class="cls-9" d="M746,406s-9-102.47,0-141.74S751,197,784,169s24-40,62-57,29-10,50-20,27-22,51-30,36-7,56-4,34,0,53,13,36,22,49,39,30,34,38,51,26,49,33,80,15,89,15,114,8,43,0,51-407,63-418.5,40.5c-1.55-3-3.16-6-4.78-8.8A249.28,249.28,0,0,0,746,406Z" transform="translate(-334 -55.8)"/><path class="cls-10" d="M736,398c-12.62-.84-27-2-26,16s-5.09,26.63,0,60.31,1,45.82,12,63.75S732,565,749,570s30.57,5.65,30.28,3.83S772,446,772.5,446.5,751,399,736,398Z" transform="translate(-334 -55.8)"/></g><path class="cls-10" d="M788.5,644.5S800,755,798,764s-10,25.11-9.5,38.06S779,854,783,866s38.57,48.39,38.57,48.39S905,975,930,979s40,28,84,6,67-64,76-82,29.59-57.33,34.8-83.67S1132,767,1131,752s-.5-88.58.25-93.79S788.5,644.5,788.5,644.5h0" transform="translate(-334 -55.8)"/><path class="cls-11" d="M882.2,229.27s-59.28,1.94-70.94,50.53-16.52,74.83-20.41,111.76-9.71,70.94-8.74,89.4,5.83,164.24,15.55,192.42,6.8,38.87,19.43,63.16,61.22,96.21,76.77,107.87,44.71,33,61.23,36,29.09,6.8,53.41,0,59.31-17.49,75.83-38.87,52.48-86.49,64.14-124.39a598.89,598.89,0,0,0,20.41-90.38c2.91-20.4,15.55-139,12.63-177.83s-8.74-113.7-13.6-131.2-34-59.28-54.42-69-28.9-16.52-47-19.44-92-8.74-109.45-7.77S882.2,229.27,882.2,229.27Z" transform="translate(-334 -55.8)"/><path class="cls-10" d="M875.5,187.5s-61,2-73,52-17,77-21,115-10,73-9,92,6,169,16,198,7,40,20,65,63,99,79,111,46,34,63,37,29.94,7,55,0,61-18,78-40,54-89,66-128a615.45,615.45,0,0,0,21-93c3-21,16-143,13-183s-9-117-14-135-35-61-56-71-29.74-17-48.37-20-94.63-9-112.63-8S875.5,187.5,875.5,187.5Z" transform="translate(-334 -55.8)"/><g id="Layer_5" data-name="Layer 5"><path class="cls-10" d="M1181,417s0-12,7-16,15.59-6,18.8,0,7.24,34.74,5.72,45.87S1209,487,1208,500s-3,39-8,49-22.75,35.52-29.88,20.76S1181,417,1181,417Z" transform="translate(-334 -55.8)"/></g><g id="Layer_9" data-name="Layer 9"><path class="cls-9" d="M948,380s-75.55-9-97.28,0S810,401,823,403s115,4,125,0S974,392,948,380Z" transform="translate(-334 -55.8)"/><path class="cls-9" d="M1047,379s32.17-8,63.08-3,35,6.31,42,14.65,18,15-6.54,14.66-91.19,1.31-101.35,0-27-7-19.07-14.66S1047,379,1047,379Z" transform="translate(-334 -55.8)"/></g><g id="Layer_15" data-name="Layer 15"><path d="M986.44,436.67a199,199,0,0,1-10.28,52.69,194.65,194.65,0,0,1-10.45,25c-3.85,7.67-8.29,15-12.07,22.76-3.68,7.53-6.73,15.42-7.77,23.79-.91,7.4-.27,16.25,6.59,20.72,6.08,4,14.17,2.47,20.7.61,6.69-1.91,14.14-4.91,21.12-2.55,3.5,1.18,5.32,3.93,7.42,6.77,2.3,3.1,5.21,5.31,9.28,4.94,4.38-.4,8.46-2.87,12.36-4.71l13.15-6.23,6.68-3.16c1.75-.82.23-3.41-1.51-2.59-8.55,4.05-17,8.29-25.68,12.14-3.58,1.6-7.6,2.62-10.59-.57-2.39-2.56-3.82-5.71-6.77-7.75-5.82-4-13.71-2.76-20.09-1-6.6,1.78-13.58,4.79-20.54,3.2a11.27,11.27,0,0,1-7.79-6c-1.68-3.36-1.83-7.33-1.59-11,.54-8.21,3.37-16.1,6.87-23.48,3.57-7.54,7.85-14.71,11.69-22.1A201.46,201.46,0,0,0,989,443.24c.2-2.19.35-4.38.48-6.57.11-1.93-2.89-1.92-3,0Z" transform="translate(-334 -55.8)"/><path d="M855.4,445.23c17-9.39,37-16.79,56.64-12.68,5.17,1.08,10.28,2.95,14.26,6.51,1.43,1.29,3.56-.83,2.12-2.12-7.47-6.7-18.4-8.59-28.13-8.53-10.44.07-20.74,2.69-30.38,6.56a141.91,141.91,0,0,0-16,7.67c-1.69.93-.18,3.52,1.52,2.59Z" transform="translate(-334 -55.8)"/><path d="M1045.59,432.53a95.78,95.78,0,0,1,43.43-9.36,51.25,51.25,0,0,1,12.71,1.48c4,1.12,7.79,3.2,9.56,7.14.8,1.76,3.38.23,2.6-1.52-3.63-8-13.71-9.53-21.5-10a99,99,0,0,0-48.32,9.64c-1.74.84-.22,3.42,1.52,2.59Z" transform="translate(-334 -55.8)"/><path d="M884.1,432.73a7.49,7.49,0,0,0-9,2.71c-2.25,3.08-1.71,7.33.36,10.36,2.33,3.4,6.14,5.21,10.1,5.94,4.3.79,9,.92,13.12-.84a10.93,10.93,0,0,0,6.67-8.09c.56-3.9-1.52-7.7-4.59-10-3.28-2.45-7.59-3.36-11.61-3.43s-7.78,1.25-10.06,4.67a9.14,9.14,0,0,0,.31,10.84,8.88,8.88,0,0,0,10.28,2.52,1.51,1.51,0,0,0,0-2.59,36.55,36.55,0,0,0-6.75-2.3A1.53,1.53,0,0,0,881,444c-.1,4.07,4.85,4.87,7.94,5,3.44.19,7.45,0,10.34-2.13a7.91,7.91,0,0,0,2.12-10.19c-2-4.05-6.56-5.72-10.82-6.14-3.4-.34-7.61.19-10,2.94-3,3.44-1,8.26,2.65,10.28a16.85,16.85,0,0,0,6.65,1.69,11.12,11.12,0,0,0,5.37-.58,4.94,4.94,0,0,0,3.19-4.32,6.72,6.72,0,0,0-2.81-5.22,14.36,14.36,0,0,0-7.39-2.85c-2-.22-5.12-.37-6.24,1.72-1.32,2.48,1.5,4.41,3.36,5.41a16.65,16.65,0,0,0,7.53,1.94,1.5,1.5,0,0,0,1.45-1.1,4.75,4.75,0,0,0-8.65-3.73,1.55,1.55,0,0,0,.23,1.82,6.11,6.11,0,0,0,6.71,1.81,1.53,1.53,0,0,0,1.1-1.44,4,4,0,0,0-6.15-3.43c-1.06.71-2.3,2.48-1.58,3.79a3,3,0,0,0,3.47,1.09c2.86-1,2.15-5.6-.88-5.61s-4.23,3.6-3.24,5.92a1.52,1.52,0,0,0,2.05.54,5.73,5.73,0,0,0,2.52-6.3,1.55,1.55,0,0,0-1.45-1.11,6.17,6.17,0,0,0-5.76,2.82,1.51,1.51,0,0,0,.89,2.2,5,5,0,0,0,3.87-.47L886,435.77c-1.81,1.19-3.17,3.65-1.77,5.68a3.18,3.18,0,0,0,4.92.07,2.9,2.9,0,0,0-1.19-4.33,3,3,0,0,0-4.18,1.74,1.51,1.51,0,0,0,.69,1.69,23.23,23.23,0,0,0,10.85,2.56l-1.5-1.5c-.18,1.65,0,3.41,1.49,4.43a4.26,4.26,0,0,0,3.44.58c3.15-.71,4.38-3.81,4.08-6.78-.25-2.39-1.19-7.15-4.5-6.86-4.08.36-1.7,6.4-1.19,8.59a1.52,1.52,0,0,0,2.51.67,5.05,5.05,0,0,0,1.36-4.5,3.28,3.28,0,0,0-1.17-2.12,3.15,3.15,0,0,0-2.63.16,4.32,4.32,0,0,0-.12,7.85c1.19.55,3-.72,2-2.06a23.69,23.69,0,0,0-11.89-8.53c-1.17-.37-2.48,1.14-1.69,2.21l5.17,7a1.5,1.5,0,0,0,2.59-1.51,16.17,16.17,0,0,0-6-6.17,1.5,1.5,0,0,0-1.51,2.59,13.3,13.3,0,0,1,5,5.09l2.59-1.51-5.17-7-1.7,2.2a20.26,20.26,0,0,1,10.1,7.16l2.05-2.05c-1.45-.68-1.28-2.64.48-2.62l-1.29-.74a2,2,0,0,1-.26,2.44l2.51.66-.73-3.09a6.48,6.48,0,0,0-.31-1.35c0-.1-.24-1.13-.53-.36a11,11,0,0,1,.93,1.8,13.1,13.1,0,0,1,.46,2.47c.09,1.25-.06,2.75-1.36,3.32a1.75,1.75,0,0,1-1.36.1c-.63-.39-.39-1.46-.32-2.06a1.52,1.52,0,0,0-1.5-1.5A19.92,19.92,0,0,1,886,438l.69,1.7c0-.12-.17.17-.12.14s.23.36.24.06c0,.06.41.17,0-.15-.07-.25-.1-.24-.09,0s0,.3.14,0c.37,0-.35-.47-.1-.07-.3-.47.52-1.19.82-1.39a1.5,1.5,0,0,0-1.51-2.59,1.9,1.9,0,0,1-1.56.17l.9,2.2a3.23,3.23,0,0,1,3.17-1.33l-1.45-1.1a2.64,2.64,0,0,1-1.13,2.92l2,.53c-.28-.67.38-.87.56-1.32s.09.2-.17-.14c.08.11.07-.2,0-.24l.39,1.46c.23-1.32,2-1.52,2,0l1.11-1.45a3.24,3.24,0,0,1-3.8-1.05l.24,1.82a1.77,1.77,0,0,1,3.17,1.43l1.44-1.11a13.72,13.72,0,0,1-4.48-.83,13.07,13.07,0,0,1-2.25-1.11,7.76,7.76,0,0,1-1-.68l-.27-.25c-.16-.33-.24-.34-.23,0,.49-.38,1.48-.27,2-.27a12.88,12.88,0,0,1,2.24.22,11,11,0,0,1,4.73,2c.91.71,2.08,2,1.72,3.28-.32,1.13-1.65,1.49-2.67,1.62-2.69.36-6.42-.1-8.64-1.72s-2.75-4.48-.36-6.05c2.08-1.37,4.86-1.42,7.24-1.12,2.77.35,5.78,1.4,7.39,3.84,1.38,2.11,1.55,4.95-.47,6.73s-5,1.92-7.49,1.9c-1.41,0-6.46.12-6.41-2.09l-1.89,1.45a31.94,31.94,0,0,1,6,2v-2.59a5.82,5.82,0,0,1-7.07-8.22c2.67-5.67,10.93-4.85,15.72-2.66a9.27,9.27,0,0,1,5.55,6.47,6.93,6.93,0,0,1-3.11,6.75c-2.73,1.95-6.23,2.25-9.48,2.07a19,19,0,0,1-8.9-2.34c-2.58-1.57-4.71-4.6-4.17-7.75.41-2.47,3.35-4.91,5.9-3.82,1.75.75,3.28-1.83,1.51-2.59Z" transform="translate(-334 -55.8)"/><path d="M879.63,437.18c-3.14.15-4.54,3.75-3.52,6.43,1.28,3.4,5.26,4,8.45,4.1,2,.05,4.33-.43,4.54-2.81a1.5,1.5,0,0,0-1.5-1.5,1.54,1.54,0,0,0-1.5,1.5s0-.3,0-.14,0-.13,0-.13.24-.23.05-.07c0,0,.25-.15.11-.08s-.34.18-.16.1-.19.05-.26.07-.47.08-.27.06-.15,0-.21,0c-.31,0-.62,0-.93,0-.62,0-1.25,0-1.87-.11l-.22,0h.05l-.42-.08a9.61,9.61,0,0,1-1-.23l-.39-.14s-.31-.12-.15-.05,0,0-.07,0a5.84,5.84,0,0,1-.76-.45c-.2-.13.15.14,0,0l-.16-.14a3.44,3.44,0,0,1-.27-.27c-.13-.14-.11-.2,0,0-.06-.11-.14-.22-.2-.34s-.09-.23,0,0c0-.09-.07-.19-.1-.29l-.09-.34c-.08-.34,0,.2,0-.06s0-.4,0-.61a1.68,1.68,0,0,1,0-.2s-.06.32,0,.15,0-.23.07-.34.07-.25.11-.37-.14.25,0,0l.16-.27s.1-.19,0,0,0,0,.06-.05.26-.3.11-.12-.08.05,0,0l.15-.09s.15-.12,0,0,0,0,.08,0l.14,0c.17-.05-.39,0-.06,0a1.5,1.5,0,0,0,0-3Z" transform="translate(-334 -55.8)"/><path d="M884.56,436.24a4.23,4.23,0,0,0-1.85,2.85,5.34,5.34,0,0,0,.57,3.46,4.08,4.08,0,0,0,1,1.21,3.41,3.41,0,0,0,2,.91,2.86,2.86,0,0,0,2-1,4.08,4.08,0,0,0,.9-1.69,4.27,4.27,0,0,0,0-2.13,3.66,3.66,0,0,0-1.4-1.92,1.51,1.51,0,0,0-2.06.54,1.53,1.53,0,0,0-.15,1.15,1.76,1.76,0,0,0,.69.9s-.29-.26-.16-.12l.11.1a.73.73,0,0,0,.08.09c.12.13-.22-.32-.11-.13l.12.21c.12.2-.1-.3-.06-.17l0,.11a2.68,2.68,0,0,1,.07.27c0,.19,0-.21,0-.22a.81.81,0,0,0,0,.15v.28s0,.08,0,.12c0,.24.07-.35,0-.18s0,.16,0,.24a1.34,1.34,0,0,0-.09.26s.19-.38.07-.16l-.06.11s-.15.2-.14.23.25-.3.12-.16l-.1.11c0,.05-.28.24,0,.06s0,0-.1.05-.24.11,0,0,.07,0,0,0h.8l-.24-.07c-.22-.08.36.17.14,0l-.35-.2c-.2-.13.3.25.11.09l-.15-.14c-.09-.09-.17-.19-.25-.28.36.41.05,0,0-.09l-.09-.16c0-.06-.14-.32,0,0s0,0,0,0,0-.12,0-.18-.07-.27-.1-.41,0,.09,0,.16a1.79,1.79,0,0,0,0-.24,2.28,2.28,0,0,1,0-.37,1.94,1.94,0,0,0,0-.24c0,.08-.07.44,0,.17a2.75,2.75,0,0,1,.11-.41c0-.05,0-.11,0-.16-.14.45-.11.26,0,.14a4,4,0,0,1,.2-.35c.14-.21-.27.31-.07.09l.14-.15.13-.12c.18-.17-.35.25-.06.05a1.53,1.53,0,0,0,.54-2.05,1.51,1.51,0,0,0-2.05-.54Z" transform="translate(-334 -55.8)"/><path d="M889,446.27a14,14,0,0,0,9.75.05,1.54,1.54,0,0,0,1.05-1.85,1.52,1.52,0,0,0-1.85-1,13,13,0,0,1-2.12.58c-.06,0-.62.1-.38.07l-.48.05c-.36,0-.73,0-1.1,0s-.74,0-1.1-.06l-.23,0L892,444a11.74,11.74,0,0,1-2.12-.62,1.51,1.51,0,0,0-1.85,1.05,1.55,1.55,0,0,0,1,1.85Z" transform="translate(-334 -55.8)"/><path d="M894.31,445H891a1.5,1.5,0,0,0,0,3h3.27a1.54,1.54,0,0,0,1.06-.44,1.52,1.52,0,0,0,.44-1.06,1.48,1.48,0,0,0-.44-1.07,1.58,1.58,0,0,0-1.06-.43Z" transform="translate(-334 -55.8)"/><path d="M881.87,436.92a6.9,6.9,0,0,0,.22,6.33,6.6,6.6,0,0,0,5.46,3.23,6.7,6.7,0,0,0,3.58-.87,1.5,1.5,0,0,0-1.52-2.59l-.37.2c-.27.14.29-.11-.08,0a4.91,4.91,0,0,1-.75.21l-.11,0c-.17,0-.14,0,.09,0,0,.05-.35,0-.42,0s-.64.06-.73,0c.22,0,.25,0,.08,0l-.15,0-.36-.09c-.14,0-.27-.08-.4-.12l-.1,0,.07,0a1.93,1.93,0,0,1-.65-.34l-.17-.12c-.13-.1-.11-.08.05.05a1.32,1.32,0,0,1-.28-.25c-.08-.08-.17-.16-.25-.25l-.13-.16c-.11-.12-.09-.1,0,.06-.15-.06-.31-.47-.38-.61a1.47,1.47,0,0,0-.14-.28c.08.2.09.23,0,.08s0-.13-.07-.2a5.56,5.56,0,0,1-.19-.7l0-.2c0,.21,0,.26,0,.14s0-.24,0-.36a5.77,5.77,0,0,1,0-.72c0-.17,0-.14,0,.09,0-.07,0-.13,0-.2s0-.2.07-.3a2.64,2.64,0,0,1,.12-.4,1.46,1.46,0,0,1,.07-.19c-.09.2-.1.22,0,.07a1.5,1.5,0,0,0-2.59-1.51Z" transform="translate(-334 -55.8)"/><path d="M882.87,436H878a1.5,1.5,0,0,0,0,3h4.9a1.51,1.51,0,0,0,1.5-1.5,1.53,1.53,0,0,0-1.5-1.5Z" transform="translate(-334 -55.8)"/><path d="M894.45,446.2s-.18.06-.2.09.28-.1.06,0l-.46.16a6.74,6.74,0,0,0-.89.2c.08,0,.29,0,.08,0l-.21,0-.49,0-.43,0-.22,0c-.16,0-.2-.1,0,0a2.74,2.74,0,0,0-.43-.08l-.41-.1-.47-.15-.2-.08c-.19-.07.25.12.06,0a8.94,8.94,0,0,1-.8-.44l-.18-.12s-.29-.2-.11-.07,0,0-.06-.05l-.2-.18a1.5,1.5,0,1,0-2.12,2.12,8.32,8.32,0,0,0,9.16,1.3,1.5,1.5,0,0,0,.54-2.05,1.54,1.54,0,0,0-2-.54Z" transform="translate(-334 -55.8)"/><path d="M899.22,446.39a1.5,1.5,0,0,0,0-3,1.5,1.5,0,0,0,0,3Z" transform="translate(-334 -55.8)"/><path d="M1075.44,422.78c-3.37-.28-6.89-.49-10.08.87a9.07,9.07,0,0,0-5.4,6.24,7.13,7.13,0,0,0,3,7.09c2.68,2,6,2.28,9.25,2.33s7,.82,10-1a8.27,8.27,0,0,0,3.8-6.67c.29-5.92-5.36-10.33-10.89-10.49-5-.14-10.59,2.89-11.75,8-.6,2.69.19,5.6,2.87,6.8a13,13,0,0,0,4.33.8,22,22,0,0,0,4.8-.05,8.54,8.54,0,0,0,6.88-4.73,5.67,5.67,0,0,0-1.66-6.9,9.1,9.1,0,0,0-6.36-1.39c-2.45.24-5.26.85-7.2,2.44-2.49,2.05-1.94,5.38.66,7a11.23,11.23,0,0,0,9,.94,5.16,5.16,0,0,0,3.2-3.23c.43-1.32.29-3.31-1-4.13s-3.66-.74-5.14-.57a12.45,12.45,0,0,0-4.92,1.67,1.53,1.53,0,0,0-.69,1.69,4.39,4.39,0,0,0,4.54,3.1c2.49-.07,4.22-1.88,6.1-3.28,1.53-1.15,0-3.75-1.51-2.6-1.23.92-2.43,2.24-3.9,2.74-.8.28-2.1.21-2.34-.76l-.69,1.7a9.28,9.28,0,0,1,7.4-1l-.9-.69c1.27,1.75-1.5,2.74-2.78,2.78a8.47,8.47,0,0,1-4.8-1c-3.21-2.11,3.79-3.75,5.16-3.87,2.39-.21,6.58.54,5.2,4-1.61,4-7.4,3.48-10.82,2.94-4.25-.67-2.41-5.39-.12-7.3a9.74,9.74,0,0,1,9.06-1.7c3.3,1.07,6.15,4.66,5.11,8.24a4.78,4.78,0,0,1-3.77,3.49c-2.17.39-4.59,0-6.77-.06-2.47,0-5.06-.13-7.19-1.54a4.12,4.12,0,0,1-1.94-4.86c1.77-5,8.21-4.48,12.38-4.13,1.92.15,1.91-2.85,0-3Z" transform="translate(-334 -55.8)"/><path d="M1080.3,436.72l2.46-.82a1.62,1.62,0,0,0,.89-.69,1.51,1.51,0,0,0-.54-2.06A1.54,1.54,0,0,0,1082,433l-2.45.82a1.64,1.64,0,0,0-.9.69,1.52,1.52,0,0,0-.15,1.16,1.52,1.52,0,0,0,1.84,1.05Z" transform="translate(-334 -55.8)"/><path d="M1082.3,434.13a1.5,1.5,0,0,0,0-3,1.5,1.5,0,0,0,0,3Z" transform="translate(-334 -55.8)"/><path d="M897.32,644.12c6.88,11.24,18.24,18.41,30.25,23.19a144.52,144.52,0,0,0,19.41,6,207.21,207.21,0,0,0,24,4.33c16,1.9,32.47,1.61,48.26-2a101.78,101.78,0,0,0,36.2-16.12A83,83,0,0,0,1081,630.77q1.13-2.16,2.1-4.38c.78-1.75-1.81-3.28-2.59-1.51a78.1,78.1,0,0,1-23,29.27,96.72,96.72,0,0,1-33.63,17.12c-15,4.27-30.67,5.21-46.12,4a182.81,182.81,0,0,1-43.8-8.82c-11.8-4-23.63-10-31.4-20a45.43,45.43,0,0,1-2.62-3.83c-1-1.65-3.6-.14-2.59,1.51Z" transform="translate(-334 -55.8)"/><path d="M1069.61,610.87c6.34,13.14,20.64,20.82,34.87,21.61,1.93.11,1.92-2.89,0-3-13.24-.74-26.4-7.94-32.28-20.13-.84-1.74-3.43-.22-2.59,1.52Z" transform="translate(-334 -55.8)"/><path d="M746.73,464.58c-7.49,10.29-8.82,24.54-4,36.24a36.07,36.07,0,0,0,5.49,9.18c1.23,1.5,3.34-.63,2.12-2.12-9.58-11.69-9.87-29.63-1-41.79,1.14-1.56-1.46-3.06-2.59-1.51Z" transform="translate(-334 -55.8)"/><path d="M1192,461.24a93.83,93.83,0,0,1-5.59,34c-.66,1.82,2.24,2.6,2.89.79a95.93,95.93,0,0,0,5.7-34.76c0-1.93-3-1.94-3,0Z" transform="translate(-334 -55.8)"/></g></g></svg>