<svg xmlns="http://www.w3.org/2000/svg" xmlns:xlink="http://www.w3.org/1999/xlink" width="1366" height="428.467" viewBox="0 0 1366 428.467">
  <defs>
    <linearGradient id="linear-gradient" y1="0.5" x2="1" y2="0.5" gradientUnits="objectBoundingBox">
      <stop offset="0" stop-color="#0f5257"/>
      <stop offset="1" stop-color="#48bf84"/>
    </linearGradient>
  </defs>
  <g id="_5fa406e27a7094761d71b9d2_mountains" data-name="5fa406e27a7094761d71b9d2_mountains" transform="translate(-0.661 -83.775)">
    <path id="Path_9" data-name="Path 9" d="M.661,512.242H661.107L459.271,301.753l-68.226-7.366-14-8.371-33.238-2.009-11.9-4.019-31.488-18.416-17.144,11.05h-13.3l-47.933,22.1-71.374,23.1-32.539,2.679L35.57,333.9.661,364.475Z" fill="#f7b3aa"/>
    <path id="Path_10" data-name="Path 10" d="M675.456,353.9l104.263-79.694L845.5,242.063H889.58L928.066,228l32.889-15.4,94.467,38.842,34.287,24.109,3.5,7.7H1112.1l43.384,21.1,111.961,29.466,76.272,107.151-772.526,9.376Z" fill="#6c5fce"/>
    <path id="Path_11" data-name="Path 11" d="M1366.661,268.505l-14.2,9.977-17.406,5.022-29.717-1.925-37.252,22.351H1255.3l-20.329,8.288-56.038,9.292-53.173,10.547-33.325,3.851-184.247,22.1L846.649,512.242h520.012Z" fill="#ad5fce"/>
    <path id="Path_12" data-name="Path 12" d="M1366.661,456.24l-85.877-55.031-40.221-19.769h-34.638l-23.092,4.7-41.649-16.073-22.735-4.018-5.6-7.374L1097.1,355l-18.536-13.642-52.23-12.818-57.456-42.19-78.89-21.437L865.845,240.8l-22.756-19.75-18.536-33.491-13.646-5.685-7.347-9.7-23.448-13.743-32.539-34.475L707.351,83.775l-27.29,15.069-58.779,41.185-14.7,18.082-41.125,42.01-11.713,29.634L532.4,240.142,512.12,252.859l-27.29,8.719-42.342,32.809-16.794,20.754-40.936,22.943-17.844-2.391-22.042,7.293L326.9,339.591l-31.888,9.543-16.962-5.525-30.271,14.908-48.64,2.169-9.363-5.022-12.847-8.8-17.046-18.082L113.7,308.209l-50.13-20.352L.661,269.436V512.242h1366Z" fill="#baf0d5"/>
    <path id="Path_13" data-name="Path 13" d="M698.6,112.224l8.754-28.448-27.29,15.067-58.779,41.186-14.7,18.082-41.125,42.01-11.713,29.634L532.4,240.142,512.12,252.859l-27.29,8.72-42.342,32.808-16.794,20.754-40.936,22.943-17.843-2.39-22.043,7.292L326.9,339.591l-31.888,9.543-16.962-5.525-30.271,14.908-48.64,2.169-9.363-5.022-12.847-8.8-17.046-18.082L113.7,308.209l-50.13-20.351L.661,269.436V419.859L30.509,451.6l58.254,49.725h226.72l10.975-87.092,70.2-29.093,19.229-4.36,12.6-6.087h17.151l-2.792-7.976,2.792-4.681,23.092-4.36,19.586,1,12.427-15.831,41.461-13.8-8.4-15.811,8.4-6.55,24.666-6.509,68.751-66.3,19.943-9.564,20.467-21.678L686,199.719l12.595,2.913-15.492-9.2h-15.2l-24.939,18.343L626.173,221.3l-13.12,5.545,24.414-33.411,22.546-26.62,10.769-6.028-9.446-11.552,23.091-26.278Z" opacity="0.35" fill="url(#linear-gradient)"/>
  </g>
</svg>
