<svg xmlns="http://www.w3.org/2000/svg" width="100%" height="100%" viewBox="0 0 482.993 495.427">
  <g id="ui" transform="translate(-14.504 -8.285)">
    <path id="Path_229" data-name="Path 229" d="M278.995,355.99a5,5,0,0,0,5-5v-8.653a5,5,0,0,0-5-5h-1V320.984a10,10,0,0,0-10-10H244a10,10,0,0,0-10,10v16.355h-1a5,5,0,0,0-5,5v8.653a5,5,0,0,0,5,5h1v77.1h-1a5,5,0,0,0-5,5v8.653a5,5,0,0,0,5,5h1v15.97a10,10,0,0,0,10,10H268a10,10,0,0,0,10-10v-15.97h1a5,5,0,0,0,5-5v-8.653a5,5,0,0,0-5-5h-1v-77.1Z" fill="#590bb2" opacity="0.1"></path>
    <path id="Path_230" data-name="Path 230" d="M482.5,108.3H387a135.8,135.8,0,0,0-262,0H29.5a10,10,0,0,0-10,10v48.98a10,10,0,0,0,10,10h94.838a135.8,135.8,0,0,0,263.328,0H482.5a10,10,0,0,0,10-10V118.3a10,10,0,0,0-10-10Z" fill="#0c2129" opacity="0.1"></path>
    <circle id="Ellipse_28" data-name="Ellipse 28" cx="135.766" cy="135.766" r="135.766" transform="translate(120.234 29.285)" fill="#bbf0d5"></circle>
    <path id="Path_231" data-name="Path 231" d="M492.5,139.3v48.98a10,10,0,0,1-10,10H29.5a10,10,0,0,1-10-10V139.3a10,10,0,0,1,10-10h453A10,10,0,0,1,492.5,139.3Z" fill="#f5f4f9"></path>
    <path id="Path_232" data-name="Path 232" d="M384.2,209.833a136.646,136.646,0,0,0,5.865-66.323H121.93a136.646,136.646,0,0,0,5.865,66.323Z" fill="#0e4f54"></path>
    <path id="Path_233" data-name="Path 233" d="M391.761,165.051a135.813,135.813,0,0,1-4.1,33.223H124.338A136.68,136.68,0,0,1,125,129.3H387A136.016,136.016,0,0,1,391.761,165.051Z" fill="#49bf84"></path>
    <path id="Path_234" data-name="Path 234" d="M87.619,198.278H29.5a10,10,0,0,1-10-10V139.295a10,10,0,0,1,10-10H87.619Z" fill="#ddd9e4"></path>
    <path id="Path_235" data-name="Path 235" d="M277.995,341.983V488.712a10,10,0,0,1-10,10H244a10,10,0,0,1-10-10V341.983a10,10,0,0,1,10-10H268A10,10,0,0,1,277.995,341.983Z" fill="#49bf84"></path>
    <path id="Path_236" data-name="Path 236" d="M234,368.837h43.991v18.646H234Z" fill="#0e4f54"></path>
    <path id="Path_237" data-name="Path 237" d="M234,464.587h43.991v18.656H234Z" fill="#0e4f54"></path>
    <path id="Path_238" data-name="Path 238" d="M278.995,376.99H233a5,5,0,0,1-5-5v-8.653a5,5,0,0,1,5-5h45.99a5,5,0,0,1,5,5v8.653a5,5,0,0,1-5,5Z" fill="#bbf0d5"></path>
    <path id="Path_239" data-name="Path 239" d="M278.995,472.743H233a5,5,0,0,1-5-5v-8.653a5,5,0,0,1,5-5h45.99a5,5,0,0,1,5,5v8.653A5,5,0,0,1,278.995,472.743Z" fill="#bbf0d5"></path>
    <path id="Path_240" data-name="Path 240" d="M214.676,182.3a5,5,0,0,1-4.39-2.61l-4.207-7.731-4.207,7.731a5,5,0,0,1-9.143-.838l-8-24.506a5,5,0,1,1,9.5-3.1l4.4,13.481,3.055-5.613a5,5,0,0,1,8.782,0l3.055,5.613,4.4-13.481a5,5,0,1,1,9.5,3.1l-8,24.506a5,5,0,0,1-4.3,3.427q-.229.021-.456.021Z" fill="#f4f5f7"></path>
    <path id="Path_241" data-name="Path 241" d="M264.6,182.3a5,5,0,0,1-4.39-2.61L256,171.963l-4.207,7.731a5,5,0,0,1-9.143-.838l-8-24.506a5,5,0,1,1,9.5-3.1l4.4,13.481,3.055-5.613a5,5,0,0,1,8.782,0l3.055,5.613,4.4-13.481a5,5,0,1,1,9.5,3.1l-8,24.506a5,5,0,0,1-4.3,3.427c-.153.013-.3.02-.456.02Z" fill="#f4f5f7"></path>
    <path id="Path_242" data-name="Path 242" d="M314.518,182.3a5,5,0,0,1-4.39-2.61l-4.207-7.731-4.207,7.731a5,5,0,0,1-9.143-.838l-8-24.506a5,5,0,1,1,9.5-3.1l4.4,13.481,3.055-5.613a5,5,0,0,1,8.782,0l3.055,5.613,4.4-13.481a5,5,0,1,1,9.5,3.1l-8,24.506a5,5,0,0,1-4.3,3.427c-.154.014-.306.021-.457.021Z" fill="#f4f5f7"></path>
    <g id="Group_26" data-name="Group 26">
      <path id="Path_243" data-name="Path 243" d="M256,274.895a109.382,109.382,0,0,0,92.9-51.215,5,5,0,1,0-8.451-5.343,99.862,99.862,0,0,1-168.892,0,5,5,0,1,0-8.451,5.343A109.378,109.378,0,0,0,256,274.895Z" fill="#0c2129"></path>
      <path id="Path_244" data-name="Path 244" d="M348.9,106.421a109.86,109.86,0,0,0-185.794,0,5,5,0,1,0,8.451,5.345,99.86,99.86,0,0,1,168.892,0,5,5,0,0,0,8.451-5.345Z" fill="#0c2129"></path>
      <path id="Path_245" data-name="Path 245" d="M482.5,124.3H390.742C373.224,66.488,319.451,24.285,256,24.285S138.776,66.488,121.258,124.3H29.5a15.016,15.016,0,0,0-15,15V188.28a15.016,15.016,0,0,0,15,15h91.01C136.775,260.843,188.823,303.536,251,305.719v21.265h-7a15.016,15.016,0,0,0-15,15v12.2a10.01,10.01,0,0,0-6,9.158v8.653a10.008,10.008,0,0,0,6,9.158v68.783a10.01,10.01,0,0,0-6,9.158v8.653a10.008,10.008,0,0,0,6,9.158v11.814a15.016,15.016,0,0,0,15,15H268a15.016,15.016,0,0,0,15-15V476.9a10.01,10.01,0,0,0,6-9.158v-8.653a10.008,10.008,0,0,0-6-9.158v-45.4a5,5,0,0,0-10,0v44.562H239v-67.1h39.99a10.01,10.01,0,0,0,10-10v-8.653a10.008,10.008,0,0,0-6-9.158v-12.2a15.016,15.016,0,0,0-15-15h-7V305.72c62.177-2.183,114.225-44.876,130.489-102.441H482.5a15.016,15.016,0,0,0,15-15V139.3a15.017,15.017,0,0,0-15-15ZM278.994,459.09l.007,8.652H233.006v-8.652Zm-11,34.625H244a5,5,0,0,1-5-5V477.743h33.99v10.974A5,5,0,0,1,268,493.715ZM233.006,371.991v-8.652h45.989L279,371.99Zm39.989-30.009v11.356H239V341.982a5,5,0,0,1,5-5H268a5,5,0,0,1,5,5ZM256,34.285A130.994,130.994,0,0,1,380.255,124.3H131.745A130.993,130.993,0,0,1,256,34.285ZM24.5,188.28V139.295a5,5,0,0,1,5-5H82.619v58.981H29.5a5,5,0,0,1-5-5Zm68.115,5V134.3h26.009a141.282,141.282,0,0,0-.549,58.982H92.619ZM256,295.817c-72.1,0-130.766-58.661-130.766-130.766A130.649,130.649,0,0,1,128.9,134.3H383.1a130.993,130.993,0,0,1,.585,58.982h-231.9a5,5,0,0,0,0,10h229.27A131,131,0,0,1,256,295.817ZM487.5,188.28a5,5,0,0,1-5,5H393.921a141.282,141.282,0,0,0-.549-58.982H482.5a5,5,0,0,1,5,5Z" fill="#0c2129"></path>
      <path id="Path_246" data-name="Path 246" d="M68.79,149.7a15.411,15.411,0,0,0-24.743,17.672l-7.085,7.085a5,5,0,1,0,7.07,7.07l7.085-7.085A15.411,15.411,0,0,0,68.79,149.7Zm-7.07,14.736a5.418,5.418,0,1,1,0-7.666A5.428,5.428,0,0,1,61.72,164.439Z" fill="#0c2129"></path>
    </g>
    <path id="Path_247" data-name="Path 247" d="M380.766,333.751a5,5,0,0,1-5-5,6,6,0,0,0-5.995-5.995,5,5,0,0,1,0-10,6,6,0,0,0,5.995-5.995,5,5,0,0,1,10,0,6,6,0,0,0,5.995,5.995,5,5,0,0,1,0,10,6,6,0,0,0-5.995,5.995A5,5,0,0,1,380.766,333.751Z" fill="#0e4f54"></path>
    <path id="Path_248" data-name="Path 248" d="M412.362,100.645a5,5,0,0,1-5-5,6,6,0,0,0-5.995-6,5,5,0,0,1,0-10,6,6,0,0,0,5.995-6,5,5,0,0,1,10,0,6,6,0,0,0,5.995,6,5,5,0,0,1,0,10,6,6,0,0,0-5.995,6A5,5,0,0,1,412.362,100.645Z" fill="#0c2129"></path>
    <path id="Path_249" data-name="Path 249" d="M87.619,261.447a5,5,0,0,1-5-5,6,6,0,0,0-6-5.995,5,5,0,1,1,0-10,6,6,0,0,0,6-5.995,5,5,0,1,1,10,0,6,6,0,0,0,6,5.995,5,5,0,1,1,0,10,6,6,0,0,0-6,5.995A5,5,0,0,1,87.619,261.447Z" fill="#bbf0d5"></path>
    <path id="Path_250" data-name="Path 250" d="M120.234,324.988a4.98,4.98,0,0,1-3.535-1.465L105.7,312.529a5,5,0,0,1,0-7.07L116.7,294.465a5,5,0,0,1,7.07,0l10.994,10.994a5,5,0,0,1,0,7.07l-10.994,10.994a4.978,4.978,0,0,1-3.535,1.465Zm-3.923-15.994,3.923,3.923,3.923-3.923-3.923-3.923Z" fill="#49bf84"></path>
  </g>
</svg>