<svg id="_22" data-name="22" xmlns="http://www.w3.org/2000/svg" width="81.147" height="72.051" viewBox="0 0 81.147 72.051">
  <path id="Fill_419" data-name="Fill 419" d="M3.6,8.626a.23.23,0,0,1-.1-.019A6.2,6.2,0,0,1,.673,6.359a2.609,2.609,0,0,1-.465-1.6A4.1,4.1,0,0,0,.2,4.005a2.193,2.193,0,0,1,.211-1.4L0,2.436c.043-.074.091-.147.137-.217A2.2,2.2,0,0,0,.4,1.742,2.426,2.426,0,0,1,2.253.291L2.38.255A5.04,5.04,0,0,1,3.766,0c.062,0,.124,0,.184.006A3.626,3.626,0,0,1,6.989,1.921a5.965,5.965,0,0,1,.76,1.71l.008.036a2.527,2.527,0,0,1,.074,1.24A4.78,4.78,0,0,1,5.016,8.2c-.325.124-.665.224-.994.321l-.006,0-.293.087A.434.434,0,0,1,3.6,8.626Zm.578-6.568c-.112.192-.329.208-.539.223-.277.02-.563.041-.625.458-.018.124-.144.164-.277.206a.441.441,0,0,0-.284.172.344.344,0,0,0,.008.267,2.7,2.7,0,0,0-.233,1.54,4.706,4.706,0,0,1-.022.952c.182,0,.358.009.527.018s.309.016.456.016a2.33,2.33,0,0,0,.531-.052A3.541,3.541,0,0,0,5.62,3.1c-.008-.114-.047-.322-.144-.379-.308-.176-.633-.334-.948-.487l-.349-.171Z" transform="translate(33.69 39.704)"/>
  <path id="Fill_421" data-name="Fill 421" d="M.685,1.681C.327,1.6.118,1.449.246,1.025A1.161,1.161,0,0,0,.477.917,8.076,8.076,0,0,1,2.931.047a1.553,1.553,0,0,1,1.23.218A5.964,5.964,0,0,1,6.575,2.834a3.472,3.472,0,0,1-.427,3.149c-.374.482-.9.785-1.284,1.275-.632-.1-1.3.154-1.927-.226-.294-.178-1.572-.854-1.822-1.04A3.252,3.252,0,0,1,.086,4.273C.041,4.14-.031,3.97.014,3.86.3,3.152.1,2.3.685,1.681" transform="translate(0 53.721)"/>
  <path id="Fill_423" data-name="Fill 423" d="M5.873,7.247A1.618,1.618,0,0,1,5.2,7.1a1.291,1.291,0,0,0-.423-.11.1.1,0,0,0-.083.024.448.448,0,0,1-.348.21.814.814,0,0,1-.372-.137l0,0a.825.825,0,0,0-.383-.14.358.358,0,0,0-.08.009l-.022,0c-.068,0-.138-.072-.218-.154a.714.714,0,0,0-.472-.277A.622.622,0,0,1,2.445,6.3,1.308,1.308,0,0,0,2.2,6.1.919.919,0,0,1,1.978,5.9a.557.557,0,0,0-.416-.256.484.484,0,0,0-.07.005,1.87,1.87,0,0,0-.567-.773,2.569,2.569,0,0,1-.442-.5A3.822,3.822,0,0,1,.371.867,1.412,1.412,0,0,1,1.595,0a1.45,1.45,0,0,1,.867.32l.018.013a1.2,1.2,0,0,0,.663.331A.679.679,0,0,0,3.564.49c.059.094.121.142.184.142s.14-.057.212-.17A.528.528,0,0,1,4.437.205,1.067,1.067,0,0,1,4.653.23a6.3,6.3,0,0,1,2.518.979A6.627,6.627,0,0,1,8.312,2.423c.153.193.312.393.476.579a1.289,1.289,0,0,0,.138.568.851.851,0,0,1-.117,1.091l.245.085.011,0,.23.08L9.1,5.437l-.13.41-.406.047-.2.023.137.184.077.1a1.805,1.805,0,0,1-1.424.8l-.077,0H7.056a1.408,1.408,0,0,0-.432.1l-.056.019A2.215,2.215,0,0,1,5.873,7.247ZM2.28,2.451c-.484.241-.469.593-.454.965a1.766,1.766,0,0,1-.028.508A5.328,5.328,0,0,0,5.259,5.212q.085,0,.168,0a1.979,1.979,0,0,0,1.428-.634c.163-.169.326-.33.5-.5l.2-.2c-.046-.064-.091-.118-.131-.166a.759.759,0,0,1-.161-.247,1.206,1.206,0,0,0-1.15-1A1.7,1.7,0,0,1,5.569,2.3a2.908,2.908,0,0,0-.339-.134,2.234,2.234,0,0,0-.5-.11c-.044,0-.072.008-.083.025-.064.1-.125.141-.192.141a.355.355,0,0,1-.172-.069l-.01-.006a.392.392,0,0,0-.2-.075.3.3,0,0,0-.2.089l-.436.41-.013.012L2.974,3l-.411-.323L2.28,2.451Z" transform="translate(49.912 28.208)"/>
  <path id="Fill_425" data-name="Fill 425" d="M1.9.326A1.364,1.364,0,0,1,3.176.083l-.212.29c.22.057.577.069.6.169.185.693.967.889,1.2,1.532a3.9,3.9,0,0,1,.162,3.3c-.065.125-.13.154-.038.331.256.488.018.84-.43,1.093-.311.176-.139.352.042.528L3.34,8.815H2.1c-.229-.247-.512-.545-.788-.848a7.253,7.253,0,0,1-.8-.77A2.956,2.956,0,0,1,.077,4.83C.21,4.189.525,3.587.683,2.949a1.3,1.3,0,0,1,.621-.98.828.828,0,0,0,.278-.648C1.575,1,1.8.877,1.941.672,1.987.605,1.918.459,1.9.326" transform="translate(65.052 58.243)"/>
  <path id="Fill_427" data-name="Fill 427" d="M3.072,7.648v0C3.03,7.391,3,7.187,2.967,7L2.9,6.562l-.333.485,0,.007-.138.2c-.033-.031-.065-.068-.1-.1-.06-.069-.111-.128-.155-.128H2.164A1.114,1.114,0,0,1,2,7.038a1.332,1.332,0,0,1-.958-.551,2.292,2.292,0,0,0-.49-.424.306.306,0,0,1-.078-.2c0-.047,0-.08.013-.091.387-.33.221-.606.06-.873a1.18,1.18,0,0,1-.172-.378L.25,4.636l-.125.112a.33.33,0,0,0-.031-.027C.072,4.7.048,4.684.05,4.667A2.608,2.608,0,0,0,.026,4.25,1.042,1.042,0,0,1,.3,3.212a.458.458,0,0,0,.107-.261.783.783,0,0,1,.069-.223A3.1,3.1,0,0,0,.65,2.34a1.357,1.357,0,0,1,.491-.735A.8.8,0,0,0,1.467,1.1.918.918,0,0,1,1.787.57,3.151,3.151,0,0,1,3.564,0a2.18,2.18,0,0,1,.764.129,3.993,3.993,0,0,1,2.327,2.38A5.111,5.111,0,0,1,7,5.279,2.263,2.263,0,0,1,6,6.532a.194.194,0,0,1-.12.032A1.459,1.459,0,0,1,5.548,6.5a3.017,3.017,0,0,0-.3-.069c0,.02.009.046.013.076a.732.732,0,0,0,.088.291c.087.134.117.236.09.31a.218.218,0,0,1-.153.122.353.353,0,0,1-.107.019A.174.174,0,0,1,5.05,7.2a.378.378,0,0,1-.068-.283c0-.024-.039-.05-.1-.089-.036-.023-.077-.049-.12-.082l-.6.5c-.032-.108-.062-.214-.113-.389l-.026-.09L3.55,7.2l-.477.442Zm.673-5.735a1.09,1.09,0,0,0-.477.243c-.078.055-.159.111-.232.153a3,3,0,0,0-.494.711c-.027.048-.054.1-.082.158-.094.188-.2.4-.323.417-.287.038-.3.177-.306.337,0,.039,0,.08-.011.121a.908.908,0,0,1-.116.29c-.022.04-.042.078-.059.115a1.443,1.443,0,0,0,1.05.493,3.271,3.271,0,0,0,1.3-.4A1.725,1.725,0,0,0,4.982,2.6c-.017-.017-.036-.033-.055-.048a.319.319,0,0,1-.1-.113C4.693,2.1,4.4,2.047,4.114,2A1.883,1.883,0,0,1,3.8,1.922.167.167,0,0,0,3.745,1.913Z" transform="translate(73.41 20.514)"/>
  <path id="Fill_429" data-name="Fill 429" d="M2.4.134l.371.313c.071-.144.125-.4.22-.413a1.1,1.1,0,0,1,.741.058A6.9,6.9,0,0,1,5.216,1.369a4.989,4.989,0,0,1,.792,1.688,1.627,1.627,0,0,1-.159,1.153A4.393,4.393,0,0,1,4.163,6.325c-.381.221-.809.231-1.169.454a2.819,2.819,0,0,1-.482.191l-.221-.391c-.128.182-.213.161-.408.026C1.533,6.362.851,5.743.556,5.5c-.951-.776-.4-1.742-.362-2.627.01-.222.364-.428.574-.656a3.151,3.151,0,0,1,1.45,1.821c.762-.095.885-.806,1.3-1.2.092-.087.03-.339.047-.7l-.811.81c-.573-.041-.5-.731-.986-.773a6.3,6.3,0,0,1,0-1.337c.05-.243.368-.431.621-.7" transform="translate(17.009 38.594)"/>
  <path id="Fill_431" data-name="Fill 431" d="M0,3.27l.843-.843h1.4c.146-.611-.306-.364-.6-.444.031-.079.04-.173.091-.217.357-.307-.171-.426-.121-.737C1.855.46,2.521.357,3.022.047a.791.791,0,0,1,.6.032A3.226,3.226,0,0,1,5.238,2.093c.238.533.017,1.163.432,1.629a8.288,8.288,0,0,1-.523,1.813,2.045,2.045,0,0,1-1.606.947c-.348.035-.651.443-.992.178-.29-.224-.7-.1-.961-.453-.188-.253-.6-.27-.717-.712C.816,5.277.4,5.242.21,4.9-.094,4.336.131,3.8,0,3.27" transform="translate(62.564 6.094)"/>
  <path id="Fill_433" data-name="Fill 433" d="M3.347,7.513a2.211,2.211,0,0,1-.377-.035l-.11-.019c-1.2-.209-1.219-.213-1.787-.837A3.462,3.462,0,0,1,.194,4.84a2.813,2.813,0,0,0-.074-.3.883.883,0,0,1,.048-.85c-.091-.087-.132-.16-.128-.22S.12,3.35.2,3.3s.185-.128.2-.24L.179,2.634,0,2.287c.07-.371.338-.483.6-.593a.927.927,0,0,0,.548-.42C1.271,1.011,1.53.94,1.8.864a1.267,1.267,0,0,0,.738-.4L2.228.249l-.156-.1A.326.326,0,0,0,2.093.111c.02-.035.045-.078.076-.083A1.667,1.667,0,0,1,2.469,0,2.367,2.367,0,0,1,4,.758a4.2,4.2,0,0,1,.727.95c.088.141.179.287.275.425a.41.41,0,0,1,.04.346c-.025.125-.047.233.1.322a.609.609,0,0,1,.276.671.921.921,0,0,0,.112.5.515.515,0,0,1,.074.3,4.025,4.025,0,0,0-.126.558A3.748,3.748,0,0,1,5.35,5.4,4.314,4.314,0,0,1,4.24,7.19,1.261,1.261,0,0,1,3.347,7.513ZM1.929,1.92h0c-.153,0-.249.123-.342.242a.771.771,0,0,1-.158.168c.039.154.076.3.112.445.093.369.182.717.261,1.06.015.062.058.269,0,.327-.367.34-.209.64-.056.93a1.815,1.815,0,0,1,.142.316l.186,0c.634,0,.686-.075,1.023-.56l.082-.118a3.291,3.291,0,0,0,.431-2.127c0-.092-.005-.183-.007-.274A.714.714,0,0,0,3.327,1.9a.379.379,0,0,0-.261-.08c-.047,0-.1,0-.143.008s-.1.008-.149.008a.379.379,0,0,1-.354-.177l-.236.362a.469.469,0,0,0-.256-.095Z" transform="translate(57.165 42.418)"/>
  <path id="Fill_435" data-name="Fill 435" d="M1.1,0c1.028.579,1.265,1.062.7,1.944-.291.455.069.968-.342,1.342-.061.055.1.357.16.543.169.512.335.558.893.411A2.5,2.5,0,0,0,4.338,2.187c-.4-.113-.8-.22-1.192-.34C2.662,1.7,2.838,1.159,2.64.909L3.369.181C4.057-.2,4.484.548,5.112.719c.461.743,1.1,1.388,1.037,2.385a2.941,2.941,0,0,1-2,2.809,2.708,2.708,0,0,1-3.037-.63A2.654,2.654,0,0,1,0,3.255,4.2,4.2,0,0,1,1.1,0" transform="translate(26.174 14.836)"/>
  <path id="Fill_437" data-name="Fill 437" d="M3.117,6.5c-.98.288-1.552-.373-2.211-.767C.3,5.372.223,4.659.044,4.074A2.673,2.673,0,0,1,.409,2.445a10.691,10.691,0,0,1,.662-1.26l-.39-.142.5-.521L.4.38C.616.218.771.007.911.017,1.3.043,1.685-.092,2.1.132A4.474,4.474,0,0,1,4.064,2.686,3.227,3.227,0,0,1,3.117,6.5" transform="translate(22.582 54.643)"/>
  <path id="Fill_439" data-name="Fill 439" d="M3.481.544l-.307.616a3.25,3.25,0,0,1,.932,2.751,1.174,1.174,0,0,1-.211.707c-.359.45-.408,1.106-1.1,1.344a1.216,1.216,0,0,1-.833.084A3.435,3.435,0,0,1,.393,4.95a2.265,2.265,0,0,1-.374-.973A5.1,5.1,0,0,1,1.043.684,1.507,1.507,0,0,1,1.719.166c.333-.15.539-.273.872-.024a4.457,4.457,0,0,0,.89.4" transform="translate(34.763 65.958)"/>
  <path id="Fill_441" data-name="Fill 441" d="M1.943,4.987c-.446-.343-.708-.963-1.4-.937a3.114,3.114,0,0,1-.5-.909A1.57,1.57,0,0,1,.9,1.283c.1-.045.161-.154.264-.258L.884.93l.68-.68L1.407.066A1.078,1.078,0,0,1,1.717.029c.454.078.976-.23,1.361.233A4.416,4.416,0,0,1,4.093,2.311,2.836,2.836,0,0,1,2.5,4.9c-.2.1-.44-.29-.559.087" transform="translate(77.029 35.637)"/>
  <path id="Fill_443" data-name="Fill 443" d="M3.851,2.9a5.069,5.069,0,0,0,0,.612c.118.766-.522,1.038-.967,1.375s-.865-.157-1.279-.28A3.223,3.223,0,0,1,.578,3.837,2.136,2.136,0,0,1,.171,1.547c.079-.154-.005-.418.362-.452.219-.021.426-.37.6-.6C1.6-.1,2-.17,2.495.352a4.64,4.64,0,0,1,.927,1.077c.267.529.566,1.01.429,1.469" transform="translate(45.18 51.477)"/>
  <path id="Fill_445" data-name="Fill 445" d="M2.195,0A4.954,4.954,0,0,1,3.484,1.718,1.422,1.422,0,0,1,2.85,3.665,1.49,1.49,0,0,1,.6,3.378c-.105-.107-.212-.212-.3-.3-.128-.4.166-.853-.256-1.162A1.536,1.536,0,0,1,1.628,0C1.816,0,2,0,2.195,0" transform="translate(34.527 28.657)"/>
  <path id="Fill_447" data-name="Fill 447" d="M.512,2.348.964,2,.531,1.631.758,1.38,0,1.214C.32.354,1.107.292,1.723.011c.121-.055.38.1.529.222A4.558,4.558,0,0,1,3.6,2.029c.04.093.094.262.056.294-.533.455.171,1.336-.529,1.641-.137.06-.445-.292-.813-.318l.468.514c-.274.182-.533.371-.811.527a.611.611,0,0,1-.332,0c-.066-.007-.187-.058-.184-.074C1.55,4,.814,4.46.732,4.055c-.041-.2-.191-.384-.21-.583C.488,3.1.512,2.725.512,2.348" transform="translate(46.711 14.699)"/>
  <path id="Fill_449" data-name="Fill 449" d="M.106.5V0H1.113c.51.766,1.209,1.492.962,2.647l-.648.041V1.755c-.181.034-.32.019-.371.08-.085.1-.094.261-.17.372-.141.2-.218.159-.407-.145A6.288,6.288,0,0,0,0,1.464l.548-.253C.073.977.081.985.473.578.541.507.5.335.521.115L.106.5" transform="translate(48.72 0)"/>
</svg>
