<svg xmlns="http://www.w3.org/2000/svg" width="100%" height="100%" viewBox="0 0 467 469.891">
  <g id="diagram" transform="translate(-22.5 -21.055)">
    <path id="Path_186" data-name="Path 186" d="M474.5,261.167H430.98v-96A21.593,21.593,0,1,0,412.3,132.784L390.55,120.231l-2.624-1.515a9.949,9.949,0,0,0,2.624-6.736v-47.8a10,10,0,0,0-10-10H324.463a10,10,0,0,0-10,10V76.3h0L274.855,53.438a21.593,21.593,0,1,0-37.37,0l-137.44,79.346A21.586,21.586,0,1,0,81.36,165.167v34.2H44.536a10,10,0,0,0-10,10v47.8a10,10,0,0,0,10,10H81.361v56.666a21.593,21.593,0,1,0,18.685,32.383l137.44,79.346a21.593,21.593,0,1,0,37.37,0L344.25,395.5l25.983-15H474.5a10,10,0,0,0,10-10V271.167a10,10,0,0,0-10-10Z" fill="#0c2129" opacity="0.1"></path>
    <path id="Path_187" data-name="Path 187" d="M430.98,161.57V363.429L344.25,413.5l-88.08,50.85L81.361,363.429V161.57L256.17,60.65,314.46,94.3l76.09,43.93Z" fill="#bbf0d5"></path>
    <path id="Path_188" data-name="Path 188" d="M430.98,294.169v69.26L344.25,413.5H300.5a10,10,0,0,1-10-10v-99.33a10,10,0,0,1,10-10Z" fill="#49bf84"></path>
    <path id="Path_189" data-name="Path 189" d="M110.621,239.369v47.8a10,10,0,0,1-10,10H81.361v-67.8h19.26A10,10,0,0,1,110.621,239.369Z" fill="#49bf84"></path>
    <path id="Path_190" data-name="Path 190" d="M390.55,138.23v3.75a10,10,0,0,1-10,10H324.46a10,10,0,0,1-10-10V94.3Z" fill="#49bf84"></path>
    <path id="Path_191" data-name="Path 191" d="M256.222,370l-125.2-35.248L133.018,191.4,256.17,115.5l122.619,76.206L341,311.477Z" fill="#49bf84"></path>
    <circle id="Ellipse_22" data-name="Ellipse 22" cx="21.593" cy="21.593" r="21.593" transform="translate(234.577 39.054)" fill="#49bf84"></circle>
    <circle id="Ellipse_23" data-name="Ellipse 23" cx="21.593" cy="21.593" r="21.593" transform="translate(234.577 442.759)" fill="#49bf84"></circle>
    <circle id="Ellipse_24" data-name="Ellipse 24" cx="21.593" cy="21.593" r="21.593" transform="translate(409.387 139.98)" fill="#49bf84"></circle>
    <circle id="Ellipse_25" data-name="Ellipse 25" cx="21.593" cy="21.593" r="21.593" transform="translate(59.768 139.98)" fill="#49bf84"></circle>
    <circle id="Ellipse_26" data-name="Ellipse 26" cx="21.593" cy="21.593" r="21.593" transform="translate(59.768 341.833)" fill="#49bf84"></circle>
    <path id="Path_192" data-name="Path 192" d="M474.5,398.5h-174a10,10,0,0,1-10-10V289.166a10,10,0,0,1,10-10h174a10,10,0,0,1,10,10V388.5A10,10,0,0,1,474.5,398.5Z" fill="#f5f4f9"></path>
    <path id="Path_193" data-name="Path 193" d="M369.877,316.485H323.135a5.008,5.008,0,0,1,0-10.016h46.742a5.008,5.008,0,1,1,0,10.016Z" fill="#bbf0d5"></path>
    <path id="Path_194" data-name="Path 194" d="M429.877,352.35H323.135a5.008,5.008,0,0,1,0-10.016H429.877a5.008,5.008,0,1,1,0,10.016Z" fill="#ddd9e4"></path>
    <path id="Path_195" data-name="Path 195" d="M429.877,372.634H323.135a5.008,5.008,0,0,1,0-10.016H429.877a5.008,5.008,0,1,1,0,10.016Z" fill="#ddd9e4"></path>
    <path id="Path_196" data-name="Path 196" d="M412.837,324.254a4.985,4.985,0,0,1-3.535-1.464,6.008,6.008,0,0,0-8.486,0,5,5,0,1,1-7.07-7.071,6,6,0,0,0,0-8.485,5,5,0,0,1,7.07-7.072,6.007,6.007,0,0,0,8.486,0,5,5,0,1,1,7.07,7.072,6,6,0,0,0,0,8.485,5,5,0,0,1-3.535,8.535Z" fill="#0e4f54"></path>
    <path id="Path_197" data-name="Path 197" d="M453.5,324.254a4.985,4.985,0,0,1-3.535-1.464,6.008,6.008,0,0,0-8.486,0,5,5,0,1,1-7.07-7.071,6,6,0,0,0,0-8.485,5,5,0,0,1,7.07-7.072,6.007,6.007,0,0,0,8.486,0,5,5,0,1,1,7.07,7.072,6,6,0,0,0,0,8.485,5,5,0,0,1-3.535,8.535Z" fill="#0e4f54"></path>
    <path id="Path_198" data-name="Path 198" d="M100.622,285.166H44.536a10,10,0,0,1-10-10v-47.8a10,10,0,0,1,10-10h56.086a10,10,0,0,1,10,10v47.8A10,10,0,0,1,100.622,285.166Z" fill="#0e4f54"></path>
    <path id="Path_199" data-name="Path 199" d="M65.778,268.3a5,5,0,0,1-4.349-7.46l13.593-24.072a5,5,0,1,1,8.708,4.917L70.137,265.761A5,5,0,0,1,65.778,268.3Z" fill="#f5f4f9"></path>
    <path id="Path_200" data-name="Path 200" d="M380.549,139.98H324.463a10,10,0,0,1-10-10v-47.8a10,10,0,0,1,10-10h56.086a10,10,0,0,1,10,10v47.8A10,10,0,0,1,380.549,139.98Z" fill="#0e4f54"></path>
    <path id="Path_201" data-name="Path 201" d="M345.7,123.118a5,5,0,0,1-4.349-7.46l13.593-24.072a5,5,0,1,1,8.708,4.917l-13.593,24.072a5,5,0,0,1-4.359,2.543Z" fill="#f5f4f9"></path>
    <circle id="Ellipse_27" data-name="Ellipse 27" cx="11.232" cy="11.232" r="11.232" transform="translate(244.938 251.267)" fill="#f5f4f9"></circle>
    <g id="Group_25" data-name="Group 25">
      <path id="Path_202" data-name="Path 202" d="M251.17,196.4a5,5,0,1,0,10,0V184.383a5,5,0,0,0-10,0Z" fill="#0c2129"></path>
      <path id="Path_203" data-name="Path 203" d="M256.17,129.294a5,5,0,0,0,5-5V112.276a5,5,0,0,0-10,0v12.018A5,5,0,0,0,256.17,129.294Z" fill="#0c2129"></path>
      <path id="Path_204" data-name="Path 204" d="M251.17,160.348a5,5,0,1,0,10,0V148.33a5,5,0,0,0-10,0Z" fill="#0c2129"></path>
      <path id="Path_205" data-name="Path 205" d="M256.17,395.7a5,5,0,0,0-5,5v12.018a5,5,0,0,0,10,0V400.7A5,5,0,0,0,256.17,395.7Z" fill="#0c2129"></path>
      <path id="Path_206" data-name="Path 206" d="M261.17,328.6a5,5,0,0,0-10,0v12.018a5,5,0,0,0,10,0Z" fill="#0c2129"></path>
      <path id="Path_207" data-name="Path 207" d="M261.17,292.544a5,5,0,1,0-10,0v12.018a5,5,0,0,0,10,0Z" fill="#0c2129"></path>
      <path id="Path_208" data-name="Path 208" d="M261.17,364.651a5,5,0,0,0-10,0v12.018a5,5,0,0,0,10,0Z" fill="#0c2129"></path>
      <path id="Path_209" data-name="Path 209" d="M251.17,232.455a5,5,0,1,0,10,0V220.437a5,5,0,1,0-10,0Z" fill="#0c2129"></path>
      <path id="Path_210" data-name="Path 210" d="M122.291,339.8a5,5,0,0,0,6.83,1.83l10.28-5.936a5,5,0,1,0-5-8.66l-10.28,5.936a5,5,0,0,0-1.83,6.83Z" fill="#0c2129"></path>
      <path id="Path_211" data-name="Path 211" d="M342.514,217.653a4.972,4.972,0,0,0,2.495-.671l10.28-5.936a5,5,0,0,0-5-8.66l-10.28,5.936a5,5,0,0,0,2.505,9.331Z" fill="#0c2129"></path>
      <path id="Path_212" data-name="Path 212" d="M311.672,235.459a4.972,4.972,0,0,0,2.495-.671l10.28-5.935a5,5,0,0,0-5-8.66l-10.28,5.935a5,5,0,0,0,2.505,9.331Z" fill="#0c2129"></path>
      <path id="Path_213" data-name="Path 213" d="M280.831,253.265a4.972,4.972,0,0,0,2.495-.671l10.28-5.935a5,5,0,0,0-5-8.66l-10.28,5.935a5,5,0,0,0,2.505,9.331Z" fill="#0c2129"></path>
      <path id="Path_214" data-name="Path 214" d="M373.354,199.847a4.972,4.972,0,0,0,2.495-.671l10.28-5.936a5,5,0,0,0-5-8.66l-10.28,5.936a5,5,0,0,0,2.505,9.331Z" fill="#0c2129"></path>
      <path id="Path_215" data-name="Path 215" d="M214.813,286.377a5,5,0,0,0,6.83,1.83l10.281-5.936a5,5,0,1,0-5-8.66l-10.281,5.936a5,5,0,0,0-1.83,6.83Z" fill="#0c2129"></path>
      <path id="Path_216" data-name="Path 216" d="M153.132,321.989a5,5,0,0,0,6.83,1.83l10.28-5.936a5,5,0,1,0-5-8.66l-10.28,5.936a5,5,0,0,0-1.83,6.83Z" fill="#0c2129"></path>
      <path id="Path_217" data-name="Path 217" d="M183.973,304.183a5,5,0,0,0,6.83,1.83l10.28-5.936a5,5,0,1,0-5-8.66l-10.28,5.936a5,5,0,0,0-1.83,6.83Z" fill="#0c2129"></path>
      <path id="Path_218" data-name="Path 218" d="M217.6,246.006l10.32,5.958a5,5,0,1,0,5-8.66l-10.32-5.958a5,5,0,1,0-5,8.66Z" fill="#0c2129"></path>
      <path id="Path_219" data-name="Path 219" d="M124.723,192.381l10.32,5.958a5,5,0,0,0,5-8.66l-10.32-5.958a5,5,0,1,0-5,8.66Z" fill="#0c2129"></path>
      <path id="Path_220" data-name="Path 220" d="M186.643,228.131l10.32,5.958a5,5,0,0,0,5-8.66l-10.32-5.958a5,5,0,1,0-5,8.66Z" fill="#0c2129"></path>
      <path id="Path_221" data-name="Path 221" d="M155.683,210.256,166,216.214a5,5,0,0,0,5-8.66l-10.32-5.958a5,5,0,1,0-5,8.66Z" fill="#0c2129"></path>
      <path id="Path_222" data-name="Path 222" d="M474.5,274.166H435.979V187.688a26.589,26.589,0,1,0-25.1-43.5l-16.16-9.33a14.91,14.91,0,0,0,.833-4.884v-47.8a15.018,15.018,0,0,0-15-15H324.463a15.017,15.017,0,0,0-15,15v3.458L281.286,69.373a26.594,26.594,0,1,0-50.231,0l-129.592,74.82a26.583,26.583,0,1,0-25.1,43.494v24.68H44.536a15.018,15.018,0,0,0-15,15v47.8a15.018,15.018,0,0,0,15,15h56.086a15.018,15.018,0,0,0,15-15v-47.8a15.018,15.018,0,0,0-15-15H86.361v-24.68a26.6,26.6,0,0,0,15.1-8.735l2.619,1.512a5,5,0,1,0,5-8.66l-2.606-1.505a26.5,26.5,0,0,0,0-17.454l129.592-74.82a26.592,26.592,0,0,0,15.1,8.735v1.479a5,5,0,1,0,10,0V86.76a26.6,26.6,0,0,0,15.1-8.735l33.19,19.162v32.791a15.018,15.018,0,0,0,15,15H380.55a14.883,14.883,0,0,0,7.829-2.23l17.486,10.1a26.5,26.5,0,0,0,0,17.454l-4.174,2.41a5,5,0,1,0,5,8.66l4.187-2.417a26.592,26.592,0,0,0,15.1,8.735v91.478a5,5,0,0,0,5,5H474.5a5.006,5.006,0,0,1,5,5V388.5a5.006,5.006,0,0,1-5,5h-174a5.006,5.006,0,0,1-5-5V289.165a5.006,5.006,0,0,1,5-5h102.94a5,5,0,1,0,0-10H300.5a14.9,14.9,0,0,0-8.947,2.989l-7.032-4.059a5,5,0,0,0-5,8.66l6.455,3.727a14.927,14.927,0,0,0-.477,3.684V388.5a15.017,15.017,0,0,0,15,15h51.069l-75.3,43.473a26.585,26.585,0,0,0-15.1-8.735v-1.478a5,5,0,1,0-10,0v1.478a26.59,26.59,0,0,0-15.1,8.736l-129.592-74.82a26.5,26.5,0,0,0,0-17.453l2.084-1.2a5,5,0,1,0-5-8.66l-2.1,1.21a26.588,26.588,0,0,0-15.1-8.735V312.706a5,5,0,0,0-10,0v24.606a26.589,26.589,0,1,0,25.1,43.494l129.592,74.82a26.593,26.593,0,1,0,50.231,0l89.694-51.785a4.78,4.78,0,0,0,.473-.341H474.5a15.017,15.017,0,0,0,15-15V289.167a15.017,15.017,0,0,0-15-15Zm-368.877-46.8v47.8a5.007,5.007,0,0,1-5,5H44.536a5.007,5.007,0,0,1-5-5v-47.8a5.007,5.007,0,0,1,5-5h56.086a5.007,5.007,0,0,1,5,5Zm-24.262-49.2a16.593,16.593,0,1,1,16.593-16.593A16.613,16.613,0,0,1,81.361,178.166ZM256.17,77.24a16.593,16.593,0,1,1,16.594-16.593A16.612,16.612,0,0,1,256.17,77.24Zm124.38,57.74H324.463a5.007,5.007,0,0,1-5-5v-47.8a5.007,5.007,0,0,1,5-5H380.55a5.007,5.007,0,0,1,5,5v47.8A5.007,5.007,0,0,1,380.55,134.98Zm33.837,26.593a16.593,16.593,0,1,1,16.593,16.593A16.612,16.612,0,0,1,414.387,161.573ZM81.361,380.019a16.593,16.593,0,1,1,16.593-16.593A16.613,16.613,0,0,1,81.361,380.019ZM256.17,480.945a16.593,16.593,0,1,1,16.594-16.593A16.612,16.612,0,0,1,256.17,480.945Z" fill="#0c2129"></path>
      <path id="Path_223" data-name="Path 223" d="M239.938,262.5a16.231,16.231,0,1,0,16.231-16.232A16.25,16.25,0,0,0,239.938,262.5Zm16.232-6.233a6.232,6.232,0,1,1-6.231,6.232A6.239,6.239,0,0,1,256.17,256.267Z" fill="#0c2129"></path>
    </g>
    <path id="Path_224" data-name="Path 224" d="M38.517,332.5a5,5,0,0,1-3.535-1.464L23.965,320.02a5,5,0,0,1,0-7.071l11.017-11.017a5,5,0,0,1,7.07,0L53.07,312.949a5,5,0,0,1,0,7.072L42.052,331.038a5,5,0,0,1-3.535,1.464Zm-3.946-16.018,3.945,3.946,3.946-3.946-3.946-3.946Z" fill="#0c2129"></path>
    <path id="Path_225" data-name="Path 225" d="M401.567,447.871a5,5,0,0,1-3.535-1.464L387.014,435.39a5,5,0,0,1,0-7.072L398.032,417.3a5,5,0,0,1,7.07,0l11.017,11.017a5,5,0,0,1,0,7.071L405.1,446.406A5,5,0,0,1,401.567,447.871Zm-3.946-16.017,3.946,3.946,3.945-3.946-3.945-3.946Z" fill="#bbf0d5"></path>
    <path id="Path_226" data-name="Path 226" d="M436.826,103.943a4.972,4.972,0,0,1-2.495-.671l-13.493-7.79a5,5,0,0,1-1.83-6.83l7.79-13.493a5,5,0,0,1,6.83-1.83l13.493,7.79a5,5,0,0,1,1.83,6.83l-7.79,13.493A5,5,0,0,1,436.826,103.943Zm-6.658-14.621L435,92.112l2.79-4.833-4.833-2.79Z" fill="#0e4f54"></path>
    <path id="Path_227" data-name="Path 227" d="M407.566,59.107a5,5,0,0,1-5-5,6.024,6.024,0,0,0-6.017-6.017,5,5,0,0,1,0-10,6.024,6.024,0,0,0,6.017-6.017,5,5,0,0,1,10,0,6.024,6.024,0,0,0,6.018,6.017,5,5,0,0,1,0,10,6.024,6.024,0,0,0-6.018,6.017,5,5,0,0,1-5,5Z" fill="#49bf84"></path>
  </g>
</svg>