<svg xmlns="http://www.w3.org/2000/svg" width="100%" height="100%" viewBox="0 0 410 438.873">
  <g id="_001-edit-tools-1" data-name="001-edit-tools-1" transform="translate(-51 -36.563)">
    <path id="Path_2" data-name="Path 2" d="M441,92.484H321.779A81.42,81.42,0,0,0,305.14,75.352a10.014,10.014,0,0,0-16.15,7.891v9.241H223.01V83.245a10.011,10.011,0,0,0-16.123-7.914A81.438,81.438,0,0,0,190.22,92.484H71a15.005,15.005,0,0,0-15,15v254.25a15.005,15.005,0,0,0,15,15H441a15.005,15.005,0,0,0,15-15V107.484a15.005,15.005,0,0,0-15-15Z" fill="#0c2129" opacity="0.1"></path>
    <path id="Path_3" data-name="Path 3" d="M312.71,470.441H199.289l22.682-89.9h68.057Z" fill="#f4f5f7"></path>
    <path id="Path_4" data-name="Path 4" d="M297.928,411.839H214.071l7.9-31.3h68.057Z" fill="#0e4f54"></path>
    <path id="Path_5" data-name="Path 5" d="M456,128.487v254.25a15.005,15.005,0,0,1-15,15H71a15.005,15.005,0,0,1-15-15V128.487a15.005,15.005,0,0,1,15-15H441A15.005,15.005,0,0,1,456,128.487Z" fill="#f5f4f9"></path>
    <path id="Path_6" data-name="Path 6" d="M456,205.508V128.487a15.005,15.005,0,0,0-15-15H71a15.005,15.005,0,0,0-15,15v77.021Z" fill="#bbf0d5"></path>
    <path id="Path_7" data-name="Path 7" d="M227.5,207.463h57v139.88h-57Z" fill="#f4f5f7"></path>
    <path id="Path_8" data-name="Path 8" d="M284.5,207.463v42.98a80.47,80.47,0,0,1-28.5,5.17,79.555,79.555,0,0,1-28.5-5.27v-42.88Z" fill="#0e4f54"></path>
    <path id="Path_9" data-name="Path 9" d="M456,161.659V128.488a15,15,0,0,0-15-15H71a15,15,0,0,0-15,15v33.171Z" fill="#49bf84"></path>
    <path id="Path_10" data-name="Path 10" d="M56,347.345v35.39a15,15,0,0,0,15,15H441a15,15,0,0,0,15-15v-35.39Z" fill="#bbf0d5"></path>
    <path id="Path_11" data-name="Path 11" d="M337,160.744a80.994,80.994,0,0,1-81,81c-44.763,0-81.573-37.307-81-82.066a80.868,80.868,0,0,1,31.88-63.347,10.012,10.012,0,0,1,16.123,7.914v34.5a10,10,0,0,0,10,10h45.98a10,10,0,0,0,10-10v-34.5a10.014,10.014,0,0,1,16.15-7.891A80.865,80.865,0,0,1,337,160.744Z" fill="#f4f5f7"></path>
    <g id="Group_1" data-name="Group 1">
      <path id="Path_12" data-name="Path 12" d="M94.082,142.646a5,5,0,0,0,5-5V137.5a5,5,0,0,0-10,0v.146A5,5,0,0,0,94.082,142.646Z" fill="#0c2129"></path>
      <path id="Path_13" data-name="Path 13" d="M113.407,142.646a5,5,0,0,0,5-5V137.5a5,5,0,0,0-10,0v.146A5,5,0,0,0,113.407,142.646Z" fill="#0c2129"></path>
      <path id="Path_14" data-name="Path 14" d="M132.731,142.646a5,5,0,0,0,5-5V137.5a5,5,0,0,0-10,0v.146A5,5,0,0,0,132.731,142.646Z" fill="#0c2129"></path>
      <path id="Path_15" data-name="Path 15" d="M441,108.487H324.351A86.914,86.914,0,0,0,308.176,92.38a15.012,15.012,0,0,0-24.185,11.863v4.244h-33.45a5,5,0,0,0,0,10h33.45v20.257a5.006,5.006,0,0,1-5,5h-45.98a5.006,5.006,0,0,1-5-5v-34.5a15.011,15.011,0,0,0-24.156-11.889,86.817,86.817,0,0,0-16.191,16.13H71a20.023,20.023,0,0,0-20,20V382.735a20.023,20.023,0,0,0,20,20H211.214l-15.819,62.7H180.066a5,5,0,1,0,0,10H331.933a5,5,0,0,0,0-10H316.6l-15.819-62.7H441a20.023,20.023,0,0,0,20-20V128.487a20.022,20.022,0,0,0-20-20ZM61,342.345V166.659H170.228a85.4,85.4,0,0,0,24.727,54.361A86.735,86.735,0,0,0,222.5,239.878V342.345Zm171.5-98.916a85.25,85.25,0,0,0,47,.024V319.8a5,5,0,0,0,10,0V239.949a86.167,86.167,0,0,0,52.274-73.29H451V342.346H232.5ZM441,118.487a10.011,10.011,0,0,1,10,10v28.172H341.9a85.437,85.437,0,0,0-10.923-38.172ZM209.922,100.306a5.034,5.034,0,0,1,3.067-1.063,5.084,5.084,0,0,1,2.255.537,4.85,4.85,0,0,1,2.766,4.465v34.5a15.017,15.017,0,0,0,15,15h45.98a15.017,15.017,0,0,0,15-15v-34.5a4.832,4.832,0,0,1,2.756-4.454,5.011,5.011,0,0,1,5.358.536,76,76,0,1,1-92.182-.018ZM71,118.487H181.044A85.529,85.529,0,0,0,170.1,156.659H61V128.487a10.011,10.011,0,0,1,10-10ZM306.291,465.436H205.708l15.818-62.7h68.945ZM441,392.735H71a10.011,10.011,0,0,1-10-10v-30.39H451v30.39a10.011,10.011,0,0,1-10,10Z" fill="#0c2129"></path>
    </g>
    <path id="Path_16" data-name="Path 16" d="M160.8,244.941H145.817a5.123,5.123,0,0,1,0-10.246H160.8a5.123,5.123,0,1,1,0,10.246Z" fill="#ddd9e4"></path>
    <path id="Path_17" data-name="Path 17" d="M186.684,244.941h-6.577a5.123,5.123,0,0,1,0-10.246h6.577a5.123,5.123,0,0,1,0,10.246Z" fill="#bbf0d5"></path>
    <path id="Path_18" data-name="Path 18" d="M186.684,265.26H145.818a5.123,5.123,0,1,1,0-10.246h40.866a5.123,5.123,0,1,1,0,10.246Z" fill="#ddd9e4"></path>
    <path id="Path_19" data-name="Path 19" d="M99.5,260.511a5,5,0,0,1-3.535-1.464l-6.978-6.978A5,5,0,0,1,96.061,245L99.5,248.44l12.28-12.28a5,5,0,1,1,7.07,7.071l-15.815,15.816A5,5,0,0,1,99.5,260.511Z" fill="#49bf84"></path>
    <path id="Path_20" data-name="Path 20" d="M160.8,299.793H145.817a5.123,5.123,0,1,1,0-10.246H160.8a5.123,5.123,0,1,1,0,10.246Z" fill="#ddd9e4"></path>
    <path id="Path_21" data-name="Path 21" d="M186.684,299.793h-6.577a5.123,5.123,0,1,1,0-10.246h6.577a5.123,5.123,0,1,1,0,10.246Z" fill="#bbf0d5"></path>
    <path id="Path_22" data-name="Path 22" d="M186.684,320.112H145.818a5.123,5.123,0,1,1,0-10.246h40.866a5.123,5.123,0,1,1,0,10.246Z" fill="#ddd9e4"></path>
    <path id="Path_23" data-name="Path 23" d="M99.5,315.363a5,5,0,0,1-3.535-1.464l-6.978-6.978a5,5,0,0,1,7.07-7.071l3.442,3.442,12.28-12.28a5,5,0,0,1,7.07,7.071L103.038,313.9A5,5,0,0,1,99.5,315.363Z" fill="#49bf84"></path>
    <path id="Path_24" data-name="Path 24" d="M393.465,244.941H378.484a5.123,5.123,0,0,1,0-10.246h14.981a5.123,5.123,0,0,1,0,10.246Z" fill="#ddd9e4"></path>
    <path id="Path_25" data-name="Path 25" d="M419.351,244.941h-6.577a5.123,5.123,0,0,1,0-10.246h6.577a5.123,5.123,0,0,1,0,10.246Z" fill="#bbf0d5"></path>
    <path id="Path_26" data-name="Path 26" d="M419.351,265.26H378.485a5.123,5.123,0,0,1,0-10.246h40.866a5.123,5.123,0,0,1,0,10.246Z" fill="#ddd9e4"></path>
    <path id="Path_27" data-name="Path 27" d="M332.171,260.511a5,5,0,0,1-3.535-1.464l-6.978-6.978a5,5,0,0,1,7.07-7.071l3.442,3.442,12.28-12.28a5,5,0,1,1,7.07,7.071L335.7,259.047A5,5,0,0,1,332.171,260.511Z" fill="#49bf84"></path>
    <path id="Path_28" data-name="Path 28" d="M393.465,299.793H378.484a5.123,5.123,0,1,1,0-10.246h14.981a5.123,5.123,0,0,1,0,10.246Z" fill="#ddd9e4"></path>
    <path id="Path_29" data-name="Path 29" d="M419.351,299.793h-6.577a5.123,5.123,0,0,1,0-10.246h6.577a5.123,5.123,0,0,1,0,10.246Z" fill="#bbf0d5"></path>
    <path id="Path_30" data-name="Path 30" d="M419.351,320.112H378.485a5.123,5.123,0,1,1,0-10.246h40.866a5.123,5.123,0,0,1,0,10.246Z" fill="#ddd9e4"></path>
    <path id="Path_31" data-name="Path 31" d="M332.171,315.363a5,5,0,0,1-3.535-1.464l-6.978-6.978a5,5,0,0,1,7.07-7.071l3.442,3.442,12.28-12.28a5,5,0,0,1,7.07,7.071L335.7,313.9A5,5,0,0,1,332.171,315.363Z" fill="#49bf84"></path>
    <path id="Path_32" data-name="Path 32" d="M366.2,463.292a5,5,0,0,1-5-5,6.022,6.022,0,0,0-6.016-6.016,5,5,0,0,1,0-10,6.022,6.022,0,0,0,6.016-6.016,5,5,0,0,1,10,0,6.022,6.022,0,0,0,6.016,6.016,5,5,0,0,1,0,10,6.022,6.022,0,0,0-6.016,6.016A5,5,0,0,1,366.2,463.292Z" fill="#0e4f54"></path>
    <path id="Path_33" data-name="Path 33" d="M342.949,89.621a5,5,0,0,1-5-5,6.022,6.022,0,0,0-6.016-6.016,5,5,0,0,1,0-10,6.022,6.022,0,0,0,6.016-6.016,5,5,0,0,1,10,0,6.022,6.022,0,0,0,6.016,6.016,5,5,0,0,1,0,10,6.022,6.022,0,0,0-6.016,6.016A5,5,0,0,1,342.949,89.621Z" fill="#0c2129"></path>
    <path id="Path_34" data-name="Path 34" d="M273.484,68.6a5,5,0,0,1-5-5,6.022,6.022,0,0,0-6.016-6.016,5,5,0,0,1,0-10,6.022,6.022,0,0,0,6.016-6.016,5,5,0,0,1,10,0,6.022,6.022,0,0,0,6.016,6.016,5,5,0,0,1,0,10,6.022,6.022,0,0,0-6.016,6.016A5,5,0,0,1,273.484,68.6Z" fill="#49bf84"></path>
    <path id="Path_35" data-name="Path 35" d="M164.937,446.521a5,5,0,0,1-5-5,6.023,6.023,0,0,0-6.016-6.017,5,5,0,1,1,0-10,6.022,6.022,0,0,0,6.016-6.016,5,5,0,0,1,10,0,6.022,6.022,0,0,0,6.016,6.016,5,5,0,0,1,0,10,6.023,6.023,0,0,0-6.016,6.017A5,5,0,0,1,164.937,446.521Z" fill="#bbf0d5"></path>
  </g>
</svg>