<svg xmlns="http://www.w3.org/2000/svg" width="100%" height="100%" viewBox="0 0 344.714 426.997">
  <g id="_002-edit-tools" data-name="002-edit-tools" transform="translate(-83.643 -42.502)">
    <path id="Path_37" data-name="Path 37" d="M406.793,130.732H378.772V99.873a20.009,20.009,0,0,0-1.865-8.434L356.84,48.285a10,10,0,0,0-18.132,0L318.632,91.437a20.009,20.009,0,0,0-1.867,8.437v30.857H105.207A16.564,16.564,0,0,0,88.643,147.3V363.229a16.565,16.565,0,0,0,16.564,16.565H406.792a16.564,16.564,0,0,0,16.564-16.565V147.3a16.563,16.563,0,0,0-16.563-16.565Z" fill="#0c2129" opacity="0.1"></path>
    <path id="Path_38" data-name="Path 38" d="M305.69,464.5H206.309l12.952-51.348,6.922-27.427h59.633l6.922,27.427Z" fill="#f4f5f7"></path>
    <path id="Path_39" data-name="Path 39" d="M292.738,413.154H219.261l6.922-27.427h59.633Z" fill="#0e4f54"></path>
    <path id="Path_40" data-name="Path 40" d="M406.792,400.8H105.208a16.565,16.565,0,0,1-16.565-16.565V168.3a16.565,16.565,0,0,1,16.565-16.565H406.793A16.565,16.565,0,0,1,423.358,168.3V384.232A16.566,16.566,0,0,1,406.792,400.8Z" fill="#f5f4f9"></path>
    <path id="Path_41" data-name="Path 41" d="M88.643,289v95.227A16.565,16.565,0,0,0,105.207,400.8H406.792a16.564,16.564,0,0,0,16.564-16.565V289Z" fill="#bbf0d5"></path>
    <path id="Path_42" data-name="Path 42" d="M423.357,193.942V168.3a16.565,16.565,0,0,0-16.565-16.565H105.207A16.565,16.565,0,0,0,88.642,168.3v25.644Z" fill="#49bf84"></path>
    <path id="Path_43" data-name="Path 43" d="M88.643,356.644v27.588A16.565,16.565,0,0,0,105.208,400.8H406.793a16.565,16.565,0,0,0,16.565-16.565V356.644Z" fill="#bbf0d5"></path>
    <path id="Path_44" data-name="Path 44" d="M194.721,312.688H120.972a5.009,5.009,0,1,1,0-10.018h73.749a5.009,5.009,0,0,1,0,10.018Z" fill="#f5f4f9"></path>
    <path id="Path_45" data-name="Path 45" d="M137.715,276.693H120.971a5.009,5.009,0,1,1,0-10.018h16.744a5.009,5.009,0,1,1,0,10.018Z" fill="#bbf0d5"></path>
    <path id="Path_46" data-name="Path 46" d="M194.721,332.555H120.972a5.009,5.009,0,0,1,0-10.018h73.749a5.009,5.009,0,0,1,0,10.018Z" fill="#f5f4f9"></path>
    <path id="Path_47" data-name="Path 47" d="M134.123,252.873a4.983,4.983,0,0,1-3.535-1.464l-12.036-12.036a5,5,0,0,1,0-7.072l12.036-12.036a5,5,0,0,1,7.071,7.072l-8.5,8.5,8.5,8.5a5,5,0,0,1-3.536,8.536Z" fill="#49bf84"></path>
    <path id="Path_48" data-name="Path 48" d="M180.889,252.873a5,5,0,0,1-3.535-8.536l8.5-8.5-8.5-8.5a5,5,0,1,1,7.071-7.072L196.461,232.3c1.953,1.953,1.953-.881,0,1.071l-12.036,18.037a4.985,4.985,0,0,1-3.536,1.464Z" fill="#49bf84"></path>
    <path id="Path_49" data-name="Path 49" d="M150.705,252.874a5,5,0,0,1-4.349-7.46l13.593-24.072a5,5,0,1,1,8.708,4.917l-13.593,24.073A5,5,0,0,1,150.705,252.874Z" fill="#49bf84"></path>
    <path id="Path_50" data-name="Path 50" d="M338.708,69.287l-20.076,43.152a20.008,20.008,0,0,0-1.866,8.437V356.643h62.006V120.875a20.009,20.009,0,0,0-1.865-8.434L356.84,69.287a10,10,0,0,0-18.132,0Z" fill="#49bf84"></path>
    <path id="Path_51" data-name="Path 51" d="M316.766,126.623h31V356.644h-31Z" fill="#f4f5f7"></path>
    <path id="Path_52" data-name="Path 52" d="M338.708,69.287l-20.076,43.152a20.008,20.008,0,0,0-1.866,8.437v12.747a25.365,25.365,0,0,0,25.616-.964,10.188,10.188,0,0,1,10.91.084,25.357,25.357,0,0,0,25.479.88V120.875a20.009,20.009,0,0,0-1.865-8.434L356.84,69.287a10,10,0,0,0-18.132,0Z" fill="#ffd5b8"></path>
    <path id="Path_53" data-name="Path 53" d="M338.708,69.287,327.727,92.91a31.624,31.624,0,0,0,40.094-.01L356.84,69.287a10,10,0,0,0-18.132,0Z" fill="#49bf84"></path>
    <path id="Path_54" data-name="Path 54" d="M244.033,180.3l-20.076,43.152a20.008,20.008,0,0,0-1.866,8.437V356.643H284.1V231.885a20.009,20.009,0,0,0-1.865-8.434L262.165,180.3a10,10,0,0,0-18.132,0Z" fill="#49bf84"></path>
    <path id="Path_55" data-name="Path 55" d="M222.091,237.633h31V356.644h-31Z" fill="#f4f5f7"></path>
    <path id="Path_56" data-name="Path 56" d="M244.033,180.3l-20.076,43.152a20.008,20.008,0,0,0-1.866,8.437v12.747a25.365,25.365,0,0,0,25.616-.964,10.188,10.188,0,0,1,10.91.084,25.357,25.357,0,0,0,25.479.88V231.885a20.009,20.009,0,0,0-1.865-8.434L262.164,180.3a10,10,0,0,0-18.131,0Z" fill="#ffd5b8"></path>
    <path id="Path_57" data-name="Path 57" d="M244.033,180.3l-10.981,23.622a31.624,31.624,0,0,0,40.094-.01L262.165,180.3a10,10,0,0,0-18.132,0Z" fill="#8e8ca8"></path>
    <g id="Group_2" data-name="Group 2">
      <path id="Path_58" data-name="Path 58" d="M117.011,172.774v.127a5,5,0,0,0,10,0v-.127a5,5,0,0,0-10,0Z" fill="#0c2129"></path>
      <path id="Path_59" data-name="Path 59" d="M133.943,172.774v.127a5,5,0,0,0,10,0v-.127a5,5,0,0,0-10,0Z" fill="#0c2129"></path>
      <path id="Path_60" data-name="Path 60" d="M150.876,172.774v.127a5,5,0,0,0,10,0v-.127a5,5,0,0,0-10,0Z" fill="#0c2129"></path>
      <path id="Path_61" data-name="Path 61" d="M406.793,146.734H383.775V120.878a25.18,25.18,0,0,0-2.33-10.542l-20.07-43.16a15,15,0,0,0-27.206,0L314.1,110.337a25.18,25.18,0,0,0-2.33,10.542v68.064H271.7l-5-10.756a15,15,0,0,0-27.206,0l-5,10.756H93.643V168.3a11.578,11.578,0,0,1,11.564-11.564H289.224a5,5,0,0,0,0-10H105.207A21.588,21.588,0,0,0,83.643,168.3V384.232A21.589,21.589,0,0,0,105.207,405.8H215.963l-13.551,53.7H189.466a5,5,0,1,0,0,10H322.534a5,5,0,1,0,0-10H309.588l-13.551-53.7H406.793a21.589,21.589,0,0,0,21.564-21.565V168.3a21.588,21.588,0,0,0-21.564-21.564Zm-54.024,204.91V138.195a30.178,30.178,0,0,0,21.007,2.612V351.644Zm-31,0V140.808a30.159,30.159,0,0,0,21-2.614v213.45Zm62-152.7h34.582v152.7H383.775Zm23.018-42.208A11.577,11.577,0,0,1,418.357,168.3v20.644H383.775V156.734ZM343.237,71.393a5,5,0,0,1,9.07,0l9.217,19.821a26.67,26.67,0,0,1-13.756,3.856,26.3,26.3,0,0,1-13.752-3.847Zm-20.068,43.16,6.609-14.214a36.583,36.583,0,0,0,35.989,0l6.609,14.214a15.1,15.1,0,0,1,1.4,6.326v9.517a20.343,20.343,0,0,1-17.813-1.881,15.231,15.231,0,0,0-16.275-.067,20.217,20.217,0,0,1-10.919,3.186,20.477,20.477,0,0,1-7-1.242v-9.514A15.111,15.111,0,0,1,323.169,114.553Zm-11.4,84.389v152.7H289.1V231.888a25.187,25.187,0,0,0-2.331-10.542l-10.418-22.4Zm-53.677,152.7V249.2a30.183,30.183,0,0,0,21.007,2.611v99.827H258.094Zm-29.6-126.081L235.1,211.35a36.585,36.585,0,0,0,35.988,0l6.61,14.214a15.088,15.088,0,0,1,1.4,6.325v9.517a20.349,20.349,0,0,1-17.814-1.88,15.23,15.23,0,0,0-16.274-.067,20.221,20.221,0,0,1-10.92,3.186,20.477,20.477,0,0,1-7-1.242V231.89a15.09,15.09,0,0,1,1.4-6.327Zm20.069-43.16a5,5,0,0,1,9.068,0l9.217,19.822a26.679,26.679,0,0,1-13.755,3.856,26.311,26.311,0,0,1-13.752-3.846Zm-18.719,16.539-10.418,22.4a25.187,25.187,0,0,0-2.331,10.542V329.1a5,5,0,0,0,10,0V251.817a30.162,30.162,0,0,0,21-2.614v102.44H93.643v-152.7ZM299.275,459.5H212.724l13.551-53.7h59.449Zm107.518-63.7H105.207a11.577,11.577,0,0,1-11.564-11.565V361.644H418.358v22.587A11.579,11.579,0,0,1,406.793,395.8Z" fill="#0c2129"></path>
    </g>
    <path id="Path_62" data-name="Path 62" d="M273.146,132.38a4.983,4.983,0,0,1-3.535-1.464l-10.995-11a5,5,0,0,1,0-7.071l10.995-11a5,5,0,0,1,7.07,0l10.995,11a5,5,0,0,1,0,7.071l-10.995,11A4.985,4.985,0,0,1,273.146,132.38Zm-3.924-16,3.924,3.924,3.924-3.924-3.924-3.924Z" fill="#bbf0d5"></path>
    <path id="Path_63" data-name="Path 63" d="M128.1,458.38a5,5,0,0,1-5-5,6,6,0,0,0-6-5.995,5,5,0,0,1,0-10,6,6,0,0,0,6-5.995,5,5,0,0,1,10,0,6,6,0,0,0,5.995,5.995,5,5,0,0,1,0,10,6,6,0,0,0-5.995,5.995A5,5,0,0,1,128.1,458.38Z" fill="#0e4f54"></path>
    <path id="Path_64" data-name="Path 64" d="M229.6,99.939a5,5,0,0,1-5-5,6,6,0,0,0-5.995-6,5,5,0,0,1,0-10,6,6,0,0,0,5.995-6,5,5,0,0,1,10,0,6,6,0,0,0,5.995,6,5,5,0,1,1,0,10,6,6,0,0,0-5.995,6A5,5,0,0,1,229.6,99.939Z" fill="#0e4f54"></path>
    <path id="Path_65" data-name="Path 65" d="M133.3,123.379a5,5,0,0,1-5-5,6,6,0,0,0-6-6,5,5,0,0,1,0-10,6,6,0,0,0,6-6,5,5,0,0,1,10,0,6,6,0,0,0,5.995,6,5,5,0,0,1,0,10,6,6,0,0,0-5.995,6A5,5,0,0,1,133.3,123.379Z" fill="#49bf84"></path>
  </g>
</svg>